<svg xmlns="http://www.w3.org/2000/svg" viewBox="28.889062499999994 16.1 442.221875 117.8" preserveAspectRatio="xMidYMid"><defs><filter id="editing-extrusion" x="-100%" y="-100%" width="300%" height="300%"><feFlood result="color1" flood-color="#444"></feFlood><feConvolveMatrix order="8,8" divisor="1" kernelMatrix="1 0 0 0 0 0 0 0 0 1 0 0 0 0 0 0 0 0 1 0 0 0 0 0 0 0 0 1 0 0 0 0 0 0 0 0 1 0 0 0 0 0 0 0 0 1 0 0 0 0 0 0 0 0 1 0 0 0 0 0 0 0 0 1" in="SourceAlpha" result="extrude"></feConvolveMatrix><feComposite in="color1" in2="extrude" result="comp-extrude" operator="in"></feComposite><feOffset dx="4" dy="4" in="comp-extrude" result="offset-extrude"></feOffset><feMerge><feMergeNode in="offset-extrude"></feMergeNode><feMergeNode in="SourceGraphic"></feMergeNode></feMerge></filter></defs><g filter="url(#editing-extrusion)"><g transform="translate(94.76499652862549, 98.70499992370605)"><path d="M24.56-4.31L17.44 0.13L17.44 0.13Q15.56-0.34 13-1.69L13-1.69L13-1.69Q10.47-3.03 8.31-5.09L8.31-5.09L8.31-5.09Q5.56-7.75 4.47-10.88L4.47-10.88L4.47-10.88Q3.13-14.13 3.13-17.56L3.13-17.56L3.13-17.56Q3.47-21.88 4.66-24.47L4.66-24.47L4.66-24.47Q5.84-27.19 7.75-29.31L7.75-29.31L7.75-29.31Q8.56-30.22 9.63-31L9.63-31L16.25-35.34L16.25-35.34Q17.78-34.94 20.72-33.44L20.72-33.44L20.72-33.44Q22.91-32.31 25.38-30.06L25.38-30.06L25.38-30.06Q26.13-29.38 27.41-27.59L27.41-27.59L22.38-24.19L22.38-24.19Q20.84-26.63 18.88-28L18.88-28L18.88-28Q16.63-29.56 9.81-30.75L9.81-30.75L9.78-30.72L9.78-30.72Q8.88-29.03 7.84-25.06L7.84-25.06L7.84-25.06Q7.09-22.22 7.09-19.75L7.09-19.75L7.09-19.75Q7.09-18.75 7.25-17.72L7.25-17.72L7.25-17.72Q7.66-15 9.56-12.13L9.56-12.13L9.56-12.13Q11.53-9.16 14.97-7.59L14.97-7.59L14.97-7.59Q18.19-6.13 24.19-4.75L24.19-4.75L24.22-4.78L24.22-4.78Q24.72-5.56 24.72-7.50L24.72-7.50L24.72-7.50Q24.72-8.72 24.31-10.69L24.31-10.69L28.75-8.94L28.75-8.94Q27.91-7.03 26-5.50L26-5.50L26-5.50Q24.56-4.34 24.56-4.31L24.56-4.31ZM36.56 0L36.56 0L36.56 0Q37.25-4.72 37.58-9.94L37.58-9.94L37.58-9.94Q37.91-15.16 37.91-21L37.91-21L37.91-21Q37.88-29.25 37.58-34.84L37.58-34.84L37.58-34.84Q37.28-40.44 36.75-43.38L36.75-43.38L36.56-44.44L36.56-44.44Q38.44-44.66 40.34-45.33L40.34-45.33L40.34-45.33Q42.25-46 44.22-47.09L44.22-47.09L44.44-47.22L44.44-47.22Q43.91-43.72 43.56-39.72L43.56-39.72L43.56-39.72Q43.22-35.72 43.09-31.06L43.09-31.06L49.94-35.31L49.94-35.31Q50.81-35.09 51.95-34.63L51.95-34.63L51.95-34.63Q53.09-34.16 54.34-33.45L54.34-33.45L54.34-33.45Q55.59-32.75 56.89-31.81L56.89-31.81L56.89-31.81Q58.19-30.88 59.33-29.73L59.33-29.73L59.33-29.73Q60.47-28.59 61.41-27.23L61.41-27.23L61.41-27.23Q62.34-25.88 62.91-24.31L62.91-24.31L62.91-24.31Q64.13-21.31 64.22-17.75L64.22-17.75L64.22-17.75Q64.38-13.19 64.66-9.77L64.66-9.77L64.66-9.77Q64.94-6.34 65.38-4L65.38-4L65.63-2.88L65.63-2.88Q64.31-2.72 63.11-2.39L63.11-2.39L63.11-2.39Q61.91-2.06 60.89-1.66L60.89-1.66L60.89-1.66Q59.88-1.25 59.06-0.81L59.06-0.81L59.06-0.81Q58.25-0.38 57.75 0L57.75 0L57.75 0Q58.97-8.19 58.97-15.84L58.97-15.84L58.97-15.84Q58.91-17.19 58.86-18.25L58.86-18.25L58.86-18.25Q58.81-19.31 58.70-20.17L58.70-20.17L58.70-20.17Q58.59-21.03 58.39-21.73L58.39-21.73L58.39-21.73Q58.19-22.44 57.81-23.06L57.81-23.06L57.81-23.06Q56.91-24.41 55.73-25.47L55.73-25.47L55.73-25.47Q54.56-26.53 52.84-27.39L52.84-27.39L52.84-27.39Q51.13-28.25 48.77-28.98L48.77-28.98L48.77-28.98Q46.41-29.72 43.13-30.41L43.13-30.41L43.09-30.41L43.09-30.41Q43.06-29.25 43.05-28.08L43.05-28.08L43.05-28.08Q43.03-26.91 43.03-25.72L43.03-25.72L43.03-24.63L43.03-24.63Q43.06-17.09 43.31-11.97L43.31-11.97L43.31-11.97Q43.56-6.84 44.19-4L44.19-4L44.44-2.88L44.44-2.88Q43.09-2.72 41.89-2.39L41.89-2.39L41.89-2.39Q40.69-2.06 39.67-1.66L39.67-1.66L39.67-1.66Q38.66-1.25 37.86-0.81L37.86-0.81L37.86-0.81Q37.06-0.38 36.56 0ZM77.03-24.50L72.59-26.25L72.59-26.25Q73.41-28.13 75.34-29.69L75.34-29.69L76.81-30.88L83.94-35.31L83.94-35.31Q85.72-34.84 88.34-33.50L88.34-33.50L88.34-33.50Q90.84-32.22 93.03-30.09L93.03-30.09L93.03-30.09Q95.78-27.41 96.91-24.31L96.91-24.31L96.91-24.31Q98.13-21.31 98.22-17.75L98.22-17.75L98.22-17.75Q98.44-8.88 99.38-4L99.38-4L99.63-2.88L99.63-2.88Q97.50-2.63 95.81-2L95.81-2L95.81-2Q93.09-1 91.75 0L91.75 0L91.75 0Q92.94-8.44 92.94-16.78L92.94-16.78L92.94-16.78Q92.94-17.19 92.94-17.63L92.94-17.63L92.94-17.63Q92.94-21.19 91.81-23.06L91.81-23.06L91.81-23.06Q89.84-25.97 86.38-27.59L86.38-27.59L86.38-27.59Q83.25-29.06 77.13-30.41L77.13-30.41L77.13-30.41Q76.63-29.63 76.63-27.69L76.63-27.69L76.63-27.69Q76.63-26.47 77.03-24.50L77.03-24.50ZM91.72-4.31L85.16 0L85.16 0Q83.38-0.63 79.50-2.63L79.50-2.63L79.50-2.63Q76.59-4.13 73.88-7.13L73.88-7.13L73.88-7.13Q71.88-10.25 71.88-12.91L71.88-12.91L71.88-12.91Q71.88-12.97 71.88-13.06L71.88-13.06L71.88-13.06Q72.34-16.84 75.38-19.19L75.38-19.19L75.38-19.19Q80.50-23.13 88.22-23.19L88.22-23.19L88.22-23.19Q78.69-19.69 77.19-15.38L77.19-15.38L77.19-15.38Q76.88-14.47 76.88-13.63L76.88-13.63L76.88-13.63Q76.88-12.19 77.88-11.06L77.88-11.06L77.88-11.06Q80.56-8.34 82.41-7.44L82.41-7.44L82.41-7.44Q88.06-4.66 91.72-4.31L91.72-4.31ZM107.44 0L107.44 0L107.44 0Q108.03-4.72 108.33-8.58L108.33-8.58L108.33-8.58Q108.63-12.44 108.63-15.56L108.63-15.56L108.63-15.56Q108.63-18.09 108.58-20.30L108.58-20.30L108.58-20.30Q108.53-22.50 108.41-24.48L108.41-24.48L108.41-24.48Q108.28-26.47 108.08-28.31L108.08-28.31L108.08-28.31Q107.88-30.16 107.59-32.03L107.59-32.03L107.44-32.53L107.44-32.53Q109.34-32.75 111.23-33.42L111.23-33.42L111.23-33.42Q113.13-34.09 115.09-35.19L115.09-35.19L115.31-35.31L115.31-35.31Q115-34.41 114.66-33.33L114.66-33.33L114.66-33.33Q114.31-32.25 113.97-31.06L113.97-31.06L120.81-35.31L120.81-35.31Q122.06-34.97 123.92-34.11L123.92-34.11L123.92-34.11Q125.78-33.25 127.69-31.86L127.69-31.86L127.69-31.86Q129.59-30.47 131.27-28.58L131.27-28.58L131.27-28.58Q132.94-26.69 133.78-24.31L133.78-24.31L128.13-22L128.13-22Q126.84-24.34 125.19-25.95L125.19-25.95L125.19-25.95Q123.53-27.56 121.78-28.58L121.78-28.58L121.78-28.58Q120.03-29.59 118.34-30.05L118.34-30.05L118.34-30.05Q116.66-30.50 115.31-30.50L115.31-30.50L115.31-30.50Q114.66-30.50 114-30.41L114-30.41L113.97-30.41L113.97-30.41Q113.84-29.25 113.80-26.73L113.80-26.73L113.80-26.73Q113.75-24.22 113.75-20.28L113.75-20.28L113.75-19.19L113.75-19.19Q113.75-10.41 115.06-4L115.06-4L115.31-2.88L115.31-2.88Q114.09-2.72 112.91-2.41L112.91-2.41L112.91-2.41Q111.72-2.09 110.67-1.67L110.67-1.67L110.67-1.67Q109.63-1.25 108.78-0.81L108.78-0.81L108.78-0.81Q107.94-0.38 107.44 0ZM140.50-24.50L136.06-26.25L136.06-26.25Q136.88-28.13 138.81-29.69L138.81-29.69L140.28-30.88L147.41-35.31L147.41-35.31Q149.19-34.84 151.81-33.50L151.81-33.50L151.81-33.50Q154.31-32.22 156.50-30.09L156.50-30.09L156.50-30.09Q159.25-27.41 160.38-24.31L160.38-24.31L160.38-24.31Q161.59-21.31 161.69-17.75L161.69-17.75L161.69-17.75Q161.91-8.88 162.84-4L162.84-4L163.09-2.88L163.09-2.88Q160.97-2.63 159.28-2L159.28-2L159.28-2Q156.56-1 155.22 0L155.22 0L155.22 0Q156.41-8.44 156.41-16.78L156.41-16.78L156.41-16.78Q156.41-17.19 156.41-17.63L156.41-17.63L156.41-17.63Q156.41-21.19 155.28-23.06L155.28-23.06L155.28-23.06Q153.31-25.97 149.84-27.59L149.84-27.59L149.84-27.59Q146.72-29.06 140.59-30.41L140.59-30.41L140.59-30.41Q140.09-29.63 140.09-27.69L140.09-27.69L140.09-27.69Q140.09-26.47 140.50-24.50L140.50-24.50ZM155.19-4.31L148.63 0L148.63 0Q146.84-0.63 142.97-2.63L142.97-2.63L142.97-2.63Q140.06-4.13 137.34-7.13L137.34-7.13L137.34-7.13Q135.34-10.25 135.34-12.91L135.34-12.91L135.34-12.91Q135.34-12.97 135.34-13.06L135.34-13.06L135.34-13.06Q135.81-16.84 138.84-19.19L138.84-19.19L138.84-19.19Q143.97-23.13 151.69-23.19L151.69-23.19L151.69-23.19Q142.16-19.69 140.66-15.38L140.66-15.38L140.66-15.38Q140.34-14.47 140.34-13.63L140.34-13.63L140.34-13.63Q140.34-12.19 141.34-11.06L141.34-11.06L141.34-11.06Q144.03-8.34 145.88-7.44L145.88-7.44L145.88-7.44Q151.53-4.66 155.19-4.31L155.19-4.31ZM190.78-4.31L183.66 0.13L183.66 0.13Q181.78-0.34 179.22-1.69L179.22-1.69L179.22-1.69Q176.69-3.03 174.53-5.09L174.53-5.09L174.53-5.09Q171.78-7.75 170.69-10.88L170.69-10.88L170.69-10.88Q169.34-14.13 169.34-17.56L169.34-17.56L169.34-17.56Q169.69-21.88 170.88-24.47L170.88-24.47L170.88-24.47Q172.06-27.19 173.97-29.31L173.97-29.31L173.97-29.31Q174.78-30.22 175.84-31L175.84-31L182.47-35.34L182.47-35.34Q184-34.94 186.94-33.44L186.94-33.44L186.94-33.44Q189.13-32.31 191.59-30.06L191.59-30.06L191.59-30.06Q192.34-29.38 193.63-27.59L193.63-27.59L188.59-24.19L188.59-24.19Q187.06-26.63 185.09-28L185.09-28L185.09-28Q182.84-29.56 176.03-30.75L176.03-30.75L176-30.72L176-30.72Q175.09-29.03 174.06-25.06L174.06-25.06L174.06-25.06Q173.31-22.22 173.31-19.75L173.31-19.75L173.31-19.75Q173.31-18.75 173.47-17.72L173.47-17.72L173.47-17.72Q173.88-15 175.78-12.13L175.78-12.13L175.78-12.13Q177.75-9.16 181.19-7.59L181.19-7.59L181.19-7.59Q184.41-6.13 190.41-4.75L190.41-4.75L190.44-4.78L190.44-4.78Q190.94-5.56 190.94-7.50L190.94-7.50L190.94-7.50Q190.94-8.72 190.53-10.69L190.53-10.69L194.97-8.94L194.97-8.94Q194.13-7.03 192.22-5.50L192.22-5.50L192.22-5.50Q190.78-4.34 190.78-4.31L190.78-4.31ZM203.56 0L203.56 0L203.56 0Q204.25-4.72 204.58-9.94L204.58-9.94L204.58-9.94Q204.91-15.16 204.91-21L204.91-21L204.91-21Q204.91-22 204.91-22.84L204.91-22.84L204.91-22.84Q204.91-23.69 204.88-24.38L204.88-24.38L204.69-31.50L204.69-31.50Q202.44-31.44 200.42-31.25L200.42-31.25L200.42-31.25Q198.41-31.06 196.53-30.72L196.53-30.72L196.53-30.72Q196.97-31.41 197.33-32.58L197.33-32.58L197.33-32.58Q197.69-33.75 197.88-35.31L197.88-35.31L198.38-35.16L198.38-35.16Q199.28-34.88 200.81-34.77L200.81-34.77L200.81-34.77Q202.34-34.66 204.53-34.56L204.53-34.56L204.53-34.56Q204.38-37.47 204.19-39.66L204.19-39.66L204.19-39.66Q204-41.84 203.75-43.38L203.75-43.38L203.56-44.44L203.56-44.44Q205.47-44.66 207.36-45.33L207.36-45.33L207.36-45.33Q209.25-46 211.44-47.22L211.44-47.22L211.44-47.22Q210.56-41.66 210.22-34.50L210.22-34.50L210.22-34.50Q212.59-34.56 214.64-34.77L214.64-34.77L214.64-34.77Q216.69-34.97 218.47-35.31L218.47-35.31L218.47-35.31Q217.44-33.19 217.19-30.72L217.19-30.72L216.69-30.84L216.69-30.84Q215.63-31.09 213.97-31.20L213.97-31.20L213.97-31.20Q212.31-31.31 210.09-31.44L210.09-31.44L210.09-31.44Q210.06-30.03 210.05-28.63L210.05-28.63L210.05-28.63Q210.03-27.22 210.03-25.72L210.03-25.72L210.03-24.63L210.03-24.63Q210.06-17.09 210.31-11.97L210.31-11.97L210.31-11.97Q210.56-6.84 211.19-4L211.19-4L211.44-2.88L211.44-2.88Q210.31-2.72 209.13-2.39L209.13-2.39L209.13-2.39Q207.94-2.06 206.86-1.64L206.86-1.64L206.86-1.64Q205.78-1.22 204.91-0.78L204.91-0.78L204.91-0.78Q204.03-0.34 203.56 0ZM241.47-4.31L234.34 0.13L234.34 0.13Q232.50-0.31 229.91-1.70L229.91-1.70L229.91-1.70Q227.31-3.09 225.22-5.09L225.22-5.09L225.22-5.09Q222.47-7.75 221.38-10.88L221.38-10.88L221.38-10.88Q220.31-13.47 220.03-17.44L220.03-17.44L220.03-17.56L220.03-17.56Q220.03-20.91 221.56-24.47L221.56-24.47L221.56-24.47Q222.72-27.19 224.66-29.31L224.66-29.31L224.66-29.31Q225.47-30.19 226.53-31L226.53-31L233.09-35.31L233.09-35.31Q234.75-34.75 238.75-32.69L238.75-32.69L238.75-32.69Q241.66-31.19 244.38-28.19L244.38-28.19L244.38-28.19Q246.38-25.06 246.38-22.41L246.38-22.41L246.38-22.41Q246.38-22.34 246.38-22.25L246.38-22.25L246.38-22.25Q245.91-18.44 242.88-16.13L242.88-16.13L242.88-16.13Q237.72-12.19 230.03-12.13L230.03-12.13L230.03-12.13Q239.72-15.44 241.50-19.78L241.50-19.78L241.50-19.78Q241.88-20.69 241.88-21.56L241.88-21.56L241.88-21.56Q241.88-21.59 241.88-21.63L241.88-21.63L241.88-21.63Q241.88-21.66 241.88-21.69L241.88-21.69L241.88-21.69Q241.88-23 240.78-24.25L240.78-24.25L240.78-24.25Q239.06-26.28 235.84-27.88L235.84-27.88L235.84-27.88Q230.34-30.59 226.91-30.94L226.91-30.94L226.91-30.94Q225.72-29 224.75-25.06L224.75-25.06L224.75-25.06Q224-22 224-19.75L224-19.75L224-19.75Q224-18.69 224.16-17.72L224.16-17.72L224.16-17.72Q224.59-14.94 226.47-12.13L226.47-12.13L226.47-12.13Q228.41-9.25 231.88-7.59L231.88-7.59L231.88-7.59Q234.88-6.16 241.09-4.75L241.09-4.75L241.13-4.78L241.13-4.78Q241.63-5.56 241.63-7.50L241.63-7.50L241.63-7.50Q241.63-8.72 241.22-10.69L241.22-10.69L245.66-8.94L245.66-8.94Q244.81-7.03 242.91-5.50L242.91-5.50L242.91-5.50Q241.47-4.34 241.47-4.31L241.47-4.31ZM254.19 0L254.19 0L254.19 0Q254.78-4.72 255.08-8.58L255.08-8.58L255.08-8.58Q255.38-12.44 255.38-15.56L255.38-15.56L255.38-15.56Q255.38-18.09 255.33-20.30L255.33-20.30L255.33-20.30Q255.28-22.50 255.16-24.48L255.16-24.48L255.16-24.48Q255.03-26.47 254.83-28.31L254.83-28.31L254.83-28.31Q254.63-30.16 254.34-32.03L254.34-32.03L254.19-32.53L254.19-32.53Q256.09-32.75 257.98-33.42L257.98-33.42L257.98-33.42Q259.88-34.09 261.84-35.19L261.84-35.19L262.06-35.31L262.06-35.31Q261.75-34.41 261.41-33.33L261.41-33.33L261.41-33.33Q261.06-32.25 260.72-31.06L260.72-31.06L267.56-35.31L267.56-35.31Q268.81-34.97 270.67-34.11L270.67-34.11L270.67-34.11Q272.53-33.25 274.44-31.86L274.44-31.86L274.44-31.86Q276.34-30.47 278.02-28.58L278.02-28.58L278.02-28.58Q279.69-26.69 280.53-24.31L280.53-24.31L274.88-22L274.88-22Q273.59-24.34 271.94-25.95L271.94-25.95L271.94-25.95Q270.28-27.56 268.53-28.58L268.53-28.58L268.53-28.58Q266.78-29.59 265.09-30.05L265.09-30.05L265.09-30.05Q263.41-30.50 262.06-30.50L262.06-30.50L262.06-30.50Q261.41-30.50 260.75-30.41L260.75-30.41L260.72-30.41L260.72-30.41Q260.59-29.25 260.55-26.73L260.55-26.73L260.55-26.73Q260.50-24.22 260.50-20.28L260.50-20.28L260.50-19.19L260.50-19.19Q260.50-10.41 261.81-4L261.81-4L262.06-2.88L262.06-2.88Q260.84-2.72 259.66-2.41L259.66-2.41L259.66-2.41Q258.47-2.09 257.42-1.67L257.42-1.67L257.42-1.67Q256.38-1.25 255.53-0.81L255.53-0.81L255.53-0.81Q254.69-0.38 254.19 0ZM301.88-4.38L295.06 0.19L295.06 0.19Q292.59-0.84 290.50-1.69L290.50-1.69L290.50-1.69Q289.22-2.19 287.95-2.92L287.95-2.92L287.95-2.92Q286.69-3.66 285.56-4.50L285.56-4.50L285.56-4.50Q284.44-5.34 283.53-6.25L283.53-6.25L283.53-6.25Q282.63-7.16 282.09-8.06L282.09-8.06L287.69-11.56L287.69-11.56Q287.75-10.91 288.50-10.08L288.50-10.08L288.50-10.08Q289.25-9.25 290.91-8.34L290.91-8.34L290.91-8.34Q292.56-7.44 295.20-6.52L295.20-6.52L295.20-6.52Q297.84-5.59 301.72-4.78L301.72-4.78L301.72-4.78Q303.31-7.50 303.31-9.91L303.31-9.91L303.31-9.91Q303.31-13.16 299.56-14.19L299.56-14.19L298.78-14.41L298.78-14.41Q298.06-14.53 297.11-14.66L297.11-14.66L297.11-14.66Q296.16-14.78 295-14.94L295-14.94L295-14.94Q292-15.31 289.66-15.97L289.66-15.97L289.66-15.97Q287.31-16.63 285.69-17.64L285.69-17.64L285.69-17.64Q284.06-18.66 283.16-20.05L283.16-20.05L283.16-20.05Q282.25-21.44 282.16-23.28L282.16-23.28L282.16-23.28Q282.22-24.25 282.45-25.06L282.45-25.06L282.45-25.06Q282.69-25.88 283.23-26.84L283.23-26.84L283.23-26.84Q283.78-27.81 284.72-28.84L284.72-28.84L284.72-28.84Q285.66-29.88 287.13-31L287.13-31L293.75-35.34L293.75-35.34Q296.06-34.41 297.75-33.66L297.75-33.66L297.75-33.66Q299.44-32.91 300.72-32.14L300.72-32.14L300.72-32.14Q302-31.38 303-30.52L303-30.52L303-30.52Q304-29.66 304.97-28.53L304.97-28.53L299.50-25.22L299.50-25.22Q298.41-26.53 296.38-28L296.38-28L296.38-28Q294.25-29.50 287.31-30.75L287.31-30.75L287.28-30.72L287.28-30.72Q286.56-29.94 286.09-28.77L286.09-28.77L286.09-28.77Q285.63-27.59 285.63-26.19L285.63-26.19L285.63-26.19Q285.63-24.84 286.53-23.97L286.53-23.97L286.53-23.97Q287.44-23.09 288.88-22.53L288.88-22.53L288.88-22.53Q290.31-21.97 292.08-21.66L292.08-21.66L292.08-21.66Q293.84-21.34 295.53-21.13L295.53-21.13L295.53-21.13Q304.97-20.13 306.72-15.81L306.72-15.81L306.72-15.81Q307.34-14.34 307.34-12.72L307.34-12.72L307.34-12.72Q307.34-12 307.19-11.27L307.19-11.27L307.19-11.27Q307.03-10.53 306.59-9.66L306.59-9.66L306.59-9.66Q306.16-8.78 305.36-7.75L305.36-7.75L305.36-7.75Q304.56-6.72 303.28-5.44L303.28-5.44L303.28-5.44Q302.97-5.13 301.88-4.38L301.88-4.38Z" fill="#ccc"></path></g></g></svg>