<svg xmlns="http://www.w3.org/2000/svg" viewBox="141.234375 16.1 217.53125 117.8" preserveAspectRatio="xMidYMid"><defs><filter id="editing-extrusion"><feFlood result="color1" flood-color="#444"></feFlood><feConvolveMatrix order="8,8" divisor="1" kernelMatrix="1 0 0 0 0 0 0 0 0 1 0 0 0 0 0 0 0 0 1 0 0 0 0 0 0 0 0 1 0 0 0 0 0 0 0 0 1 0 0 0 0 0 0 0 0 1 0 0 0 0 0 0 0 0 1 0 0 0 0 0 0 0 0 1" in="SourceAlpha" result="extrude"></feConvolveMatrix><feComposite in="color1" in2="extrude" result="comp-extrude" operator="in"></feComposite><feOffset dx="4" dy="4" in="comp-extrude" result="offset-extrude"></feOffset><feMerge><feMergeNode in="offset-extrude"></feMergeNode><feMergeNode in="SourceGraphic"></feMergeNode></feMerge></filter></defs><g filter="url(#editing-extrusion)"><g transform="translate(176.75001764297485, 98.67000007629395)"><path d="M16.25-1.31L16.25-1.31L16.25-1.31Q10.91-1.31 4.69 0L4.69 0L4.69 0Q5.38-4.69 5.70-9.91L5.70-9.91L5.70-9.91Q6.03-15.13 6.03-21L6.03-21L6.03-21Q6-29.25 5.70-34.84L5.70-34.84L5.70-34.84Q5.41-40.44 4.88-43.38L4.88-43.38L4.69-44.44L4.69-44.44Q6.59-44.66 8.48-45.33L8.48-45.33L8.48-45.33Q10.38-46 12.56-47.22L12.56-47.22L12.56-47.22Q11.16-38.41 11.16-25.72L11.16-25.72L11.16-24.63L11.16-24.63Q11.16-10.31 12.22-4.53L12.22-4.53L12.22-4.53Q13.06-4.28 13.69-4.28L13.69-4.28L13.69-4.28Q24.44-4.28 31.50-7.88L31.50-7.88L31.50-7.88Q30.91-6.78 30.28-4.80L30.28-4.80L30.28-4.80Q29.66-2.81 29.41 0L29.41 0L28.59-0.25L28.59-0.25Q25.19-1.31 16.25-1.31ZM43.78-42.81L43.78-42.81L43.78-42.81Q41.13-41.25 39.66-34.50L39.66-34.50L39.66-34.50Q38.72-30.16 38.72-26.50L38.72-26.50L38.72-26.50Q38.72-24.88 38.91-23.41L38.91-23.41L38.91-23.41Q39.44-19.31 41.84-14.94L41.84-14.94L41.84-14.94Q44.06-11 48.72-8.13L48.72-8.13L48.72-8.13Q53.19-5.38 58.41-4.44L58.41-4.44L58.47-4.47L58.47-4.47Q61.38-6.09 62.72-13.22L62.72-13.22L62.72-13.22Q63.50-17.31 63.50-20.69L63.50-20.69L63.50-20.69Q63.50-22.31 63.31-23.84L63.31-23.84L63.31-23.84Q62.84-27.78 60.38-32.31L60.38-32.31L60.38-32.31Q58.16-36.34 53.69-38.97L53.69-38.97L53.69-38.97Q49.19-41.59 43.78-42.81ZM58.81-4.38L51.84 0L51.84 0Q49.63-0.59 46.22-2.44L46.22-2.44L46.22-2.44Q43.03-4.19 40.28-6.97L40.28-6.97L40.28-6.97Q36.78-10.50 35.38-14.69L35.38-14.69L35.38-14.69Q33.69-19.41 33.69-23.44L33.69-23.44L33.69-23.44Q33.69-23.53 33.69-23.59L33.69-23.59L33.69-23.59Q33.69-28.03 35.63-32.81L35.63-32.81L35.63-32.81Q37.03-36.34 39.56-39.28L39.56-39.28L39.56-39.28Q41.56-41.63 43.41-42.88L43.41-42.88L50.34-47.34L50.34-47.34Q52.31-46.81 56-44.81L56-44.81L56-44.81Q58.78-43.31 61.94-40.28L61.94-40.28L61.94-40.28Q65.47-36.72 66.88-32.31L66.88-32.31L66.88-32.31Q68.47-27.66 68.50-23.66L68.50-23.66L68.50-23.66Q68.50-23.66 68.50-23.47L68.50-23.47L68.50-23.47Q68.50-18.44 66.75-14.34L66.75-14.34L66.75-14.34Q65.06-10.41 62.72-8.06L62.72-8.06L62.72-8.06Q59.47-4.81 58.81-4.38L58.81-4.38ZM83.84 0L83.84 0L83.84 0Q84.53-4.66 84.86-9.86L84.86-9.86L84.86-9.86Q85.19-15.06 85.19-20.97L85.19-20.97L85.19-20.97Q85.19-28.94 84.88-34.41L84.88-34.41L84.88-34.41Q84.56-39.88 84.13-42.84L84.13-42.84L84.13-42.84Q80.31-42.59 76.97-41.72L76.97-41.72L76.97-41.72Q73.63-40.84 70.69-39.34L70.69-39.34L70.69-39.34Q71.31-40.53 71.92-42.52L71.92-42.52L71.92-42.52Q72.53-44.50 72.78-47.22L72.78-47.22L73.59-46.97L73.59-46.97Q77.28-45.81 90.16-45.81L90.16-45.81L90.16-45.81Q98.72-45.81 105.16-47.22L105.16-47.22L105.16-47.22Q104.25-45.09 103.77-43.20L103.77-43.20L103.77-43.20Q103.28-41.31 103.13-39.34L103.13-39.34L102.47-39.78L102.47-39.78Q98.66-42.31 91.41-42.81L91.41-42.81L91.41-42.81Q90.88-38.78 90.59-34.39L90.59-34.39L90.59-34.39Q90.31-30 90.31-24.63L90.31-24.63L90.31-24.63Q90.34-17.09 90.59-11.97L90.59-11.97L90.59-11.97Q90.84-6.84 91.47-4L91.47-4L91.72-2.88L91.72-2.88Q90.28-2.72 89.06-2.41L89.06-2.41L89.06-2.41Q87.84-2.09 86.86-1.66L86.86-1.66L86.86-1.66Q85.88-1.22 85.13-0.80L85.13-0.80L85.13-0.80Q84.38-0.38 83.84 0ZM109.84 0L109.84 0L109.84 0Q110.53-4.78 110.88-9.03L110.88-9.03L110.88-9.03Q111.22-13.28 111.22-17.06L111.22-17.06L111.22-17.06Q111.22-21.44 110.86-25.42L110.86-25.42L110.86-25.42Q110.50-29.41 110.03-33L110.03-33L109.84-34.06L109.84-34.06Q111.75-34.28 113.64-34.95L113.64-34.95L113.64-34.95Q115.53-35.63 117.72-36.84L117.72-36.84L117.72-36.84Q117-32.28 116.64-28.47L116.64-28.47L116.64-28.47Q116.28-24.66 116.28-21.53L116.28-21.53L116.28-21.53Q116.28-20.97 116.28-20.50L116.28-20.50L116.28-20.50Q116.28-20.03 116.31-19.47L116.31-19.47L116.31-19.47Q116.34-18.91 116.38-18.16L116.38-18.16L116.38-18.16Q116.41-17.41 116.47-16.31L116.47-16.31L117.06-16.03L117.06-16.03Q120.94-14.63 124.03-14.63L124.03-14.63L124.03-14.63Q126.19-14.66 128.08-15.27L128.08-15.27L128.08-15.27Q129.97-15.88 131.55-16.97L131.55-16.97L131.55-16.97Q133.13-18.06 134.09-19.66L134.09-19.66L134.09-19.66Q135.06-21.25 135.44-23.25L135.44-23.25L135.44-23.25Q135.63-24.38 135.73-25.36L135.73-25.36L135.73-25.36Q135.84-26.34 135.84-27.22L135.84-27.22L135.84-27.22Q135.84-28.78 135.50-30.27L135.50-30.27L135.50-30.27Q135.16-31.75 134.59-33.08L134.59-33.08L134.59-33.08Q134.03-34.41 133.30-35.52L133.30-35.52L133.30-35.52Q132.56-36.63 131.78-37.47L131.78-37.47L131.78-37.47Q131.06-38.22 129.95-38.91L129.95-38.91L129.95-38.91Q128.84-39.59 127.44-40.13L127.44-40.13L127.44-40.13Q126.03-40.66 124.36-40.97L124.36-40.97L124.36-40.97Q122.69-41.28 120.78-41.28L120.78-41.28L120.78-41.28Q119.16-41.28 117.36-40.89L117.36-40.89L117.36-40.89Q115.56-40.50 113.72-39.78L113.72-39.78L113.72-39.78Q111.88-39.06 110.02-38.03L110.02-38.03L110.02-38.03Q108.16-37 106.41-35.69L106.41-35.69L108.50-43.88L108.50-43.88Q110.94-44.84 112.19-45.34L112.19-45.34L112.19-45.34Q113.44-45.84 113.56-45.88L113.56-45.88L113.56-45.88Q116.38-46.63 118.34-46.98L118.34-46.98L118.34-46.98Q120.31-47.34 121.59-47.34L121.59-47.34L121.59-47.34Q123.06-47.34 124.92-46.98L124.92-46.98L124.92-46.98Q126.78-46.63 128.73-45.89L128.73-45.89L128.73-45.89Q130.69-45.16 132.55-44.08L132.55-44.08L132.55-44.08Q134.41-43 135.91-41.59L135.91-41.59L135.91-41.59Q137.16-40.41 138.19-38.89L138.19-38.89L138.19-38.89Q139.22-37.38 139.97-35.66L139.97-35.66L139.97-35.66Q140.72-33.94 141.13-32.06L141.13-32.06L141.13-32.06Q141.53-30.19 141.53-28.28L141.53-28.28L141.53-28.28Q141.50-26.59 141.19-24.92L141.19-24.92L141.19-24.92Q140.88-23.25 140.19-21.55L140.19-21.55L140.19-21.55Q139.50-19.84 138.22-18.17L138.22-18.17L138.22-18.17Q136.94-16.50 134.97-15L134.97-15L134.97-15Q134.53-14.66 134.13-14.44L134.13-14.44L134.09-14.41L134.09-14.41Q135.91-10.84 137.83-7.95L137.83-7.95L137.83-7.95Q139.75-5.06 141.81-2.78L141.81-2.78L141.81-2.78Q139.91-2.56 138.02-1.89L138.02-1.89L138.02-1.89Q136.13-1.22 133.94 0L133.94 0L133.94 0Q131-9.34 129.34-12.50L129.34-12.50L129.34-12.50Q129.03-12.44 128.63-12.38L128.63-12.38L128.63-12.38Q128.22-12.31 127.66-12.25L127.66-12.25L127.66-12.25Q127.09-12.19 126.44-12.14L126.44-12.14L126.44-12.14Q125.78-12.09 125.16-12.09L125.16-12.09L125.16-12.09Q123.09-12.09 121.08-12.42L121.08-12.42L121.08-12.42Q119.06-12.75 117.06-13.31L117.06-13.31L116.59-13.41L116.59-13.41Q116.84-9.22 117.03-6.77L117.03-6.77L117.03-6.77Q117.22-4.31 117.47-3.59L117.47-3.59L117.72-2.88L117.72-2.88Q116.25-2.72 115.05-2.41L115.05-2.41L115.05-2.41Q113.84-2.09 112.88-1.66L112.88-1.66L112.88-1.66Q111.91-1.22 111.16-0.80L111.16-0.80L111.16-0.80Q110.41-0.38 109.84 0Z" fill="#ccc"></path></g></g></svg>